<svg width="56" height="40" viewBox="0 0 56 40" fill="none" xmlns="http://www.w3.org/2000/svg">
    <path d="M23.2247 1.27589C23.3479 1.13667 23.4162 0.955311 23.4165 0.767119C23.4165 0.564784 23.3388 0.370639 23.2002 0.226961C23.0616 0.0832831 22.8734 0.00170827 22.6766 0H22.6675L10.3104 0.00647635H10.3013C10.126 0.00644574 9.95247 0.043701 9.79176 0.1159C9.63105 0.188099 9.48661 0.293682 9.3675 0.426017C8.55196 1.27229 6.46305 3.40886 2.69406 7.07534C-2.34619 11.9781 1.23169 16.8183 1.23169 16.8183L5.84142 21.557C4.75987 20.3689 6.08713 18.8023 6.08713 18.8023L23.1771 1.3313C23.1897 1.31907 23.2023 1.30612 23.2142 1.29316L23.2261 1.28021L23.2247 1.27589Z" fill="#F1416C"/>
    <path d="M23.8021 24.7198L23.7979 24.7154L13.7216 14.3701C13.6503 14.2979 13.5658 14.2408 13.4729 14.2023C13.3801 14.1637 13.2807 14.1444 13.1806 14.1455C13.0805 14.1466 12.9815 14.168 12.8895 14.2085C12.7974 14.249 12.7141 14.3079 12.6442 14.3816V14.3816L7.31558 19.8306C5.96382 21.4987 6.77516 22.3579 6.77516 22.3579L9.91411 25.7006C9.99432 25.794 10.093 25.8687 10.2036 25.9198C10.3142 25.9708 10.4341 25.9969 10.5553 25.9964H23.2281C23.2365 25.9964 23.2442 25.9964 23.2533 25.9964C23.3967 25.9955 23.5369 25.952 23.6569 25.8712C23.7769 25.7903 23.8716 25.6755 23.9296 25.5406C23.9876 25.4057 24.0064 25.2565 23.9838 25.1108C23.9612 24.9652 23.8981 24.8294 23.8021 24.7198V24.7198Z" fill="#3F4254"/>
</svg>
